<svg width="22" height="22" viewBox="0 0 22 22" fill="none" xmlns="http://www.w3.org/2000/svg">
<path fill-rule="evenodd" clip-rule="evenodd" d="M21 11C21 21 21 21 11 21C1 21 1 21 1 11C1 1 1 1 11 1C21 1 21 1 21 11Z" stroke="white"/>
<path d="M11.0002 15.1666C13.3013 15.1666 15.1668 13.3011 15.1668 10.9999C15.1668 8.69873 13.3013 6.83325 11.0002 6.83325C8.69898 6.83325 6.8335 8.69873 6.8335 10.9999C6.8335 13.3011 8.69898 15.1666 11.0002 15.1666Z" stroke="white" stroke-width="1.66667"/>
<path d="M16.8333 5.99992C17.2936 5.99992 17.6667 5.62682 17.6667 5.16659C17.6667 4.70635 17.2936 4.33325 16.8333 4.33325C16.3731 4.33325 16 4.70635 16 5.16659C16 5.62682 16.3731 5.99992 16.8333 5.99992Z" fill="white"/>
</svg>
