<svg width="20" height="20" viewBox="0 0 20 20" fill="none" xmlns="http://www.w3.org/2000/svg">
<path d="M19.3577 9.92885C19.3577 15.1363 15.1363 19.3577 9.92885 19.3577C4.72144 19.3577 0.5 15.1363 0.5 9.92885C0.5 4.72144 4.72144 0.5 9.92885 0.5C15.1363 0.5 19.3577 4.72144 19.3577 9.92885Z" stroke="white"/>
<path fill-rule="evenodd" clip-rule="evenodd" d="M9.87113 13.9707H10.5884C10.5884 13.9707 10.8051 13.9464 10.9157 13.8244C11.0175 13.7125 11.0143 13.5023 11.0143 13.5023C11.0143 13.5023 11.0002 12.5181 11.4469 12.3732C11.8873 12.2305 12.4527 13.3244 13.0521 13.745C13.5053 14.0633 13.8497 13.9935 13.8497 13.9935L15.4522 13.9707C15.4522 13.9707 16.2905 13.9179 15.893 13.2439C15.8605 13.1888 15.6615 12.7453 14.7015 11.8342C13.6967 10.8805 13.8313 11.0348 15.0417 9.38515C15.7788 8.38052 16.0735 7.76718 15.9815 7.50449C15.8937 7.25429 15.3515 7.32042 15.3515 7.32042L13.5472 7.33191C13.5472 7.33191 13.4134 7.31326 13.3142 7.37389C13.2173 7.43336 13.1549 7.57195 13.1549 7.57195C13.1549 7.57195 12.8693 8.34937 12.4884 9.01052C11.6849 10.4056 11.3637 10.4792 11.2324 10.3926C10.9269 10.1907 11.0032 9.58154 11.0032 9.14877C11.0032 7.79683 11.2037 7.23313 10.6127 7.08721C10.4165 7.03874 10.2722 7.00675 9.77061 7.00159C9.1268 6.99476 8.58187 7.00359 8.27332 7.15817C8.06806 7.26095 7.90971 7.49 8.00615 7.50316C8.1254 7.51948 8.3955 7.57762 8.5387 7.77701C8.7236 8.0342 8.71709 8.6119 8.71709 8.6119C8.71709 8.6119 8.8233 10.2034 8.46898 10.4011C8.22575 10.5367 7.89212 10.2598 7.17581 8.99419C6.80878 8.34587 6.53167 7.62925 6.53167 7.62925C6.53167 7.62925 6.47824 7.49533 6.38294 7.4237C6.26727 7.33691 6.10567 7.30926 6.10567 7.30926L4.39106 7.32075C4.39106 7.32075 4.13366 7.32808 4.03917 7.44252C3.95511 7.5443 4.03249 7.75485 4.03249 7.75485C4.03249 7.75485 5.37486 10.9661 6.89479 12.5844C8.28847 14.0681 9.87113 13.9707 9.87113 13.9707Z" fill="white"/>
</svg>
