<svg width="30" height="22" viewBox="0 0 30 22" fill="none" xmlns="http://www.w3.org/2000/svg">
<path d="M12.5519 20.6114C7.32606 20.5145 5.54119 20.4273 4.4441 20.1996C3.70184 20.0483 3.05683 19.7124 2.58388 19.2252C2.21835 18.8565 1.92766 18.2939 1.70213 17.5134C1.50868 16.8632 1.43333 16.3221 1.32592 15.0006C1.16148 12.018 1.12228 9.57958 1.32592 6.85496C1.49392 5.35035 1.57537 3.56419 2.6913 2.52214C3.21821 2.03445 3.83115 1.7206 4.51944 1.59086C5.59464 1.38522 10.1754 1.22266 14.9176 1.22266C19.6491 1.22266 24.2401 1.38522 25.3163 1.59086C26.1762 1.75343 26.9826 2.2406 27.456 2.86881C28.4742 4.48214 28.492 6.4883 28.5954 8.05753C28.6381 8.80522 28.6381 13.0509 28.5954 13.7986C28.4345 16.2786 28.3052 17.156 27.9397 18.0657C27.7136 18.6401 27.5207 18.9432 27.1867 19.2791C26.6629 19.796 25.9952 20.1398 25.2725 20.2647C20.7503 20.6073 16.9102 20.6816 12.5519 20.6114V20.6114Z" stroke="white"/>
<path d="M18.4714 10.2563C19.0809 10.5647 19.0809 11.4351 18.4714 11.7435L12.9153 14.5546C12.361 14.8351 11.7058 14.4322 11.7058 13.811V8.1888C11.7058 7.56759 12.361 7.16477 12.9153 7.44522L18.4714 10.2563Z" fill="white"/>
</svg>
